<svg width="75" height="75" viewBox="0 0 75 75" fill="none" xmlns="http://www.w3.org/2000/svg">
<path d="M74.3902 71.4447C75.2027 72.2572 75.2027 73.5775 74.3902 74.39C73.9839 74.7962 73.4488 74.9994 72.9175 74.9994C72.3862 74.9994 71.8511 74.7962 71.4448 74.39L37.4998 40.445L3.55477 74.39C3.14852 74.7962 2.61337 74.9994 2.08208 74.9994C1.55079 74.9994 1.01568 74.7962 0.609375 74.39C-0.203125 73.5775 -0.203125 72.2572 0.609375 71.4447L34.5544 37.4997L0.609375 3.55468C-0.203125 2.74218 -0.203125 1.42188 0.609375 0.609375C1.42188 -0.203125 2.74218 -0.203125 3.55468 0.609375L37.4997 34.5544L71.4447 0.609375C72.2572 -0.203125 73.5775 -0.203125 74.39 0.609375C75.2025 1.42188 75.2025 2.74218 74.39 3.55468L40.445 37.4997L74.3902 71.4447Z" fill="white"/>
</svg>
